# xmcd
#
# Track frame offsets:
#	150
#	12988
#	33117
#	46061
#	60191
#	73518
#	88061
#	103461
#	116290
#	130040
#	143964
#	158536
#	178015
#	193933
#	208110
#	224487
#	239024
#	253423
#
# Disc length: 3586 seconds
#
# Revision: 1
# Processed by: cddbd v1.5.2PL0 Copyright (c) Steve Scherf et al.
# Submitted via: audiograbber 1.82.02
#
DISCID=070e0012
DTITLE=Various Artist - Country Radio - March 2020
DYEAR=2020
DGENRE=Country
TTITLE0=Erica Sunshine Lee - Karma (PO Clean Edit)
TTITLE1=NewKings - No River
TTITLE2=Hardy (Ft. Lauren Alaina and Devin Dawson) - One Beer
TTITLE3=Brandon Lay - For My Money
TTITLE4=Ryan Montgomery - Buzzed At First Sight
TTITLE5=Blake Shelton and Gwen Stefani - Nobody But You
TTITLE6=Katlyn Lowe - Last Time
TTITLE7=Logan Mize and Willie Jones - I Ain't Gotta Grow Up
TTITLE8=Ashley Barron - Beer In A Bar
TTITLE9=Dariann Leigh - Wherever I Go
TTITLE10=James Robert Webb - Think About It
TTITLE11=Calamity Jane (Ft. Camille Rae) - Devil Went Down To Georgia
TTITLE12=Tim Johnson - Gone
TTITLE13=Kylie Frey - One Night In Tulsa
TTITLE14=Dustin Lynch - Momma's House
TTITLE15=Randall King - She Gone
TTITLE16=Randy Rogers Band - You, Me and A Bottle
TTITLE17=Levi Hart - I Was Wrong Not Loving You Right
EXTD=
EXTT0=
EXTT1=
EXTT2=
EXTT3=
EXTT4=
EXTT5=
EXTT6=
EXTT7=
EXTT8=
EXTT9=
EXTT10=
EXTT11=
EXTT12=
EXTT13=
EXTT14=
EXTT15=
EXTT16=
EXTT17=
PLAYORDER=
